<?xml version="1.0" encoding="UTF-8"?>
<!DOCTYPE svg PUBLIC "-//W3C//DTD SVG 1.1//EN" "http://www.w3.org/Graphics/SVG/1.1/DTD/svg11.dtd">
<svg xmlns="http://www.w3.org/2000/svg" version="1.1" width="505px" height="506px" style="shape-rendering:geometricPrecision; text-rendering:geometricPrecision; image-rendering:optimizeQuality; fill-rule:evenodd; clip-rule:evenodd" xmlns:xlink="http://www.w3.org/1999/xlink">
<g><path style="opacity:0.993" fill="#e9e9e9" d="M 228.5,-0.5 C 244.167,-0.5 259.833,-0.5 275.5,-0.5C 344.957,6.81037 402.79,36.477 449,88.5C 480.442,126.652 498.942,170.319 504.5,219.5C 504.5,234.167 504.5,248.833 504.5,263.5C 491.789,354.113 444.456,419.613 362.5,460C 303.185,486.094 242.185,490.761 179.5,474C 93.3382,447.838 36.1715,392.005 8,306.5C 4.30449,292.191 1.47116,277.858 -0.5,263.5C -0.5,248.833 -0.5,234.167 -0.5,219.5C 11.8722,128.643 59.2056,63.1426 141.5,23C 169.389,10.6133 198.389,2.78 228.5,-0.5 Z"/></g>
<g><path style="opacity:1" fill="#040404" d="M 275.5,11.5 C 276.167,12.8333 277.167,13.8333 278.5,14.5C 288.91,21.9072 293.91,32.0739 293.5,45C 292.911,49.8524 292.244,54.6858 291.5,59.5C 290.094,59.9731 289.427,60.9731 289.5,62.5C 288.094,62.9731 287.427,63.9731 287.5,65.5C 286.473,67.184 285.473,68.8506 284.5,70.5C 283.094,70.9731 282.427,71.9731 282.5,73.5C 280.251,74.0798 278.585,75.4131 277.5,77.5C 275.596,77.7376 274.262,78.7376 273.5,80.5C 271.597,80.7959 269.93,81.4625 268.5,82.5C 266.254,83.4552 263.921,84.1218 261.5,84.5C 261.5,91.5 261.5,98.5 261.5,105.5C 264.833,105.5 268.167,105.5 271.5,105.5C 278.34,107.071 285.34,108.404 292.5,109.5C 294.214,110.738 296.214,111.405 298.5,111.5C 300.102,113.074 302.102,113.741 304.5,113.5C 305.93,114.537 307.597,115.204 309.5,115.5C 309.973,116.906 310.973,117.573 312.5,117.5C 312.833,117.5 313.167,117.5 313.5,117.5C 313.973,118.906 314.973,119.573 316.5,119.5C 319.789,121.145 323.123,122.811 326.5,124.5C 326.973,125.906 327.973,126.573 329.5,126.5C 332.589,128.925 335.922,130.925 339.5,132.5C 340.585,134.587 342.251,135.92 344.5,136.5C 355.566,145.232 365.233,155.232 373.5,166.5C 373.738,168.404 374.738,169.738 376.5,170.5C 377.982,173.622 379.649,176.622 381.5,179.5C 381.427,181.027 382.094,182.027 383.5,182.5C 387.054,187.36 389.721,192.694 391.5,198.5C 391.66,200.153 392.326,201.486 393.5,202.5C 396.414,211.67 398.747,221.003 400.5,230.5C 401.452,274.821 401.785,319.155 401.5,363.5C 400.167,364.5 398.833,365.5 397.5,366.5C 300.5,366.5 203.5,366.5 106.5,366.5C 105.167,365.5 103.833,364.5 102.5,363.5C 102.215,319.155 102.548,274.821 103.5,230.5C 105.429,221.049 107.763,211.716 110.5,202.5C 111.674,201.486 112.34,200.153 112.5,198.5C 114.139,192.895 116.806,187.895 120.5,183.5C 121.674,182.486 122.34,181.153 122.5,179.5C 122.328,178.508 122.662,177.842 123.5,177.5C 124.906,177.027 125.573,176.027 125.5,174.5C 126.308,172.78 127.308,171.113 128.5,169.5C 130.446,168.965 131.446,167.632 131.5,165.5C 134.152,161.518 137.152,157.851 140.5,154.5C 142.452,153.215 144.118,151.549 145.5,149.5C 150.225,143.442 155.892,138.442 162.5,134.5C 164.404,134.262 165.738,133.262 166.5,131.5C 166.842,130.662 167.508,130.328 168.5,130.5C 170.027,130.573 171.027,129.906 171.5,128.5C 172.913,127.065 174.58,126.065 176.5,125.5C 178.027,125.573 179.027,124.906 179.5,123.5C 179.833,123.5 180.167,123.5 180.5,123.5C 182.027,123.573 183.027,122.906 183.5,121.5C 187.177,119.987 190.844,118.321 194.5,116.5C 196.153,116.34 197.486,115.674 198.5,114.5C 200.5,113.833 202.5,113.167 204.5,112.5C 206.553,112.598 208.22,111.931 209.5,110.5C 220.579,107.585 231.913,105.585 243.5,104.5C 244.491,98.021 244.824,91.3543 244.5,84.5C 243.167,84.5 241.833,84.5 240.5,84.5C 240.158,83.6618 239.492,83.3284 238.5,83.5C 237.486,82.3263 236.153,81.6596 234.5,81.5C 233.448,81.6495 232.448,81.4828 231.5,81C 229.905,78.8981 227.905,77.3981 225.5,76.5C 225.573,74.9731 224.906,73.9731 223.5,73.5C 222.5,73.1667 221.833,72.5 221.5,71.5C 221.262,69.5956 220.262,68.2623 218.5,67.5C 218.573,65.9731 217.906,64.9731 216.5,64.5C 213.825,58.468 212.158,52.1346 211.5,45.5C 212.1,39.5812 213.434,33.9146 215.5,28.5C 217.199,26.4336 218.532,24.1003 219.5,21.5C 221.264,20.674 222.598,19.3407 223.5,17.5C 226.363,12.968 230.363,9.96799 235.5,8.5C 237.027,8.57298 238.027,7.90632 238.5,6.5C 246.811,5.50132 255.144,5.33465 263.5,6C 267.402,8.11894 271.402,9.95228 275.5,11.5 Z"/></g>
<g><path style="opacity:1" fill="#575757" d="M 238.5,6.5 C 238.027,7.90632 237.027,8.57298 235.5,8.5C 235.973,7.09368 236.973,6.42702 238.5,6.5 Z"/></g>
<g><path style="opacity:1" fill="#919191" d="M 275.5,11.5 C 277.5,11.5 278.5,12.5 278.5,14.5C 277.167,13.8333 276.167,12.8333 275.5,11.5 Z"/></g>
<g><path style="opacity:1" fill="#363636" d="M 223.5,17.5 C 222.598,19.3407 221.264,20.674 219.5,21.5C 219.833,19.1667 221.167,17.8333 223.5,17.5 Z"/></g>
<g><path style="opacity:1" fill="#5c5c5c" d="M 219.5,21.5 C 218.532,24.1003 217.199,26.4336 215.5,28.5C 215.725,25.4542 217.058,23.1209 219.5,21.5 Z"/></g>
<g><path style="opacity:1" fill="#e5e5e5" d="M 259.5,23.5 C 260.287,25.1042 261.62,25.7709 263.5,25.5C 263.973,26.9063 264.973,27.573 266.5,27.5C 274.594,34.206 276.927,42.5394 273.5,52.5C 271.917,54.6626 270.584,56.9959 269.5,59.5C 267.427,61.5798 265.093,63.2464 262.5,64.5C 260.973,64.427 259.973,65.0937 259.5,66.5C 255.019,67.6484 250.352,67.8151 245.5,67C 242.761,65.9741 240.428,64.4741 238.5,62.5C 237.864,60.2054 236.531,58.5387 234.5,57.5C 234.573,55.9731 233.906,54.9731 232.5,54.5C 231.596,53.791 231.263,52.791 231.5,51.5C 231.569,46.1463 231.902,40.813 232.5,35.5C 233.906,35.0269 234.573,34.0269 234.5,32.5C 235.596,29.6144 237.596,27.6144 240.5,26.5C 242.027,26.573 243.027,25.9063 243.5,24.5C 248.593,22.2728 253.926,21.9395 259.5,23.5 Z"/></g>
<g><path style="opacity:1" fill="#6a6a6a" d="M 259.5,23.5 C 261.153,23.6596 262.486,24.3263 263.5,25.5C 261.62,25.7709 260.287,25.1042 259.5,23.5 Z"/></g>
<g><path style="opacity:1" fill="#979797" d="M 243.5,24.5 C 243.027,25.9063 242.027,26.573 240.5,26.5C 240.973,25.0937 241.973,24.427 243.5,24.5 Z"/></g>
<g><path style="opacity:1" fill="#4a4a4a" d="M 263.5,25.5 C 265.027,25.427 266.027,26.0937 266.5,27.5C 264.973,27.573 263.973,26.9063 263.5,25.5 Z"/></g>
<g><path style="opacity:1" fill="#969696" d="M 234.5,32.5 C 234.573,34.0269 233.906,35.0269 232.5,35.5C 232.427,33.9731 233.094,32.9731 234.5,32.5 Z"/></g>
<g><path style="opacity:1" fill="#a7a7a7" d="M 232.5,35.5 C 231.902,40.813 231.569,46.1463 231.5,51.5C 230.352,47.0189 230.185,42.3522 231,37.5C 231.278,36.5842 231.778,35.9175 232.5,35.5 Z"/></g>
<g><path style="opacity:1" fill="#818181" d="M 232.5,54.5 C 233.906,54.9731 234.573,55.9731 234.5,57.5C 233.094,57.0269 232.427,56.0269 232.5,54.5 Z"/></g>
<g><path style="opacity:1" fill="#aeaeae" d="M 234.5,57.5 C 236.531,58.5387 237.864,60.2054 238.5,62.5C 236.457,61.4206 235.124,59.754 234.5,57.5 Z"/></g>
<g><path style="opacity:1" fill="#626262" d="M 273.5,52.5 C 273.445,55.6145 272.112,57.9478 269.5,59.5C 270.584,56.9959 271.917,54.6626 273.5,52.5 Z"/></g>
<g><path style="opacity:1" fill="#919191" d="M 291.5,59.5 C 291.573,61.0269 290.906,62.0269 289.5,62.5C 289.427,60.9731 290.094,59.9731 291.5,59.5 Z"/></g>
<g><path style="opacity:1" fill="#707070" d="M 289.5,62.5 C 289.573,64.0269 288.906,65.0269 287.5,65.5C 287.427,63.9731 288.094,62.9731 289.5,62.5 Z"/></g>
<g><path style="opacity:1" fill="#6f6f6f" d="M 262.5,64.5 C 262.027,65.9063 261.027,66.573 259.5,66.5C 259.973,65.0937 260.973,64.427 262.5,64.5 Z"/></g>
<g><path style="opacity:1" fill="#959595" d="M 216.5,64.5 C 217.906,64.9731 218.573,65.9731 218.5,67.5C 217.094,67.0269 216.427,66.0269 216.5,64.5 Z"/></g>
<g><path style="opacity:1" fill="#7f7f7f" d="M 218.5,67.5 C 220.262,68.2623 221.262,69.5956 221.5,71.5C 219.738,70.7377 218.738,69.4044 218.5,67.5 Z"/></g>
<g><path style="opacity:1" fill="#929292" d="M 284.5,70.5 C 284.573,72.0269 283.906,73.0269 282.5,73.5C 282.427,71.9731 283.094,70.9731 284.5,70.5 Z"/></g>
<g><path style="opacity:1" fill="#969696" d="M 223.5,73.5 C 224.906,73.9731 225.573,74.9731 225.5,76.5C 224.094,76.0269 223.427,75.0269 223.5,73.5 Z"/></g>
<g><path style="opacity:1" fill="#9e9e9e" d="M 282.5,73.5 C 281.415,75.5869 279.749,76.9202 277.5,77.5C 278.585,75.4131 280.251,74.0798 282.5,73.5 Z"/></g>
<g><path style="opacity:1" fill="#959595" d="M 277.5,77.5 C 276.738,79.2624 275.404,80.2624 273.5,80.5C 274.262,78.7376 275.596,77.7376 277.5,77.5 Z"/></g>
<g><path style="opacity:1" fill="#6b6b6b" d="M 234.5,81.5 C 236.153,81.6596 237.486,82.3263 238.5,83.5C 236.62,83.7709 235.287,83.1042 234.5,81.5 Z"/></g>
<g><path style="opacity:1" fill="#666666" d="M 240.5,84.5 C 241.833,84.5 243.167,84.5 244.5,84.5C 244.824,91.3543 244.491,98.021 243.5,104.5C 243.5,98.1667 243.5,91.8333 243.5,85.5C 242.209,85.7373 241.209,85.404 240.5,84.5 Z"/></g>
<g><path style="opacity:1" fill="#a3a3a3" d="M 268.5,82.5 C 267.216,84.6138 265.216,85.6138 262.5,85.5C 262.5,91.8333 262.5,98.1667 262.5,104.5C 265.713,104.19 268.713,104.523 271.5,105.5C 268.167,105.5 264.833,105.5 261.5,105.5C 261.5,98.5 261.5,91.5 261.5,84.5C 263.921,84.1218 266.254,83.4552 268.5,82.5 Z"/></g>
<g><path style="opacity:1" fill="#a5a5a5" d="M 292.5,109.5 C 295.01,109.054 297.01,109.72 298.5,111.5C 296.214,111.405 294.214,110.738 292.5,109.5 Z"/></g>
<g><path style="opacity:1" fill="#747474" d="M 209.5,110.5 C 208.22,111.931 206.553,112.598 204.5,112.5C 205.78,111.069 207.447,110.402 209.5,110.5 Z"/></g>
<g><path style="opacity:1" fill="#a5a5a5" d="M 298.5,111.5 C 300.898,111.259 302.898,111.926 304.5,113.5C 302.102,113.741 300.102,113.074 298.5,111.5 Z"/></g>
<g><path style="opacity:1" fill="#5a5a5a" d="M 198.5,114.5 C 197.486,115.674 196.153,116.34 194.5,116.5C 195.287,114.896 196.62,114.229 198.5,114.5 Z"/></g>
<g><path style="opacity:1" fill="#959595" d="M 309.5,115.5 C 311.027,115.427 312.027,116.094 312.5,117.5C 310.973,117.573 309.973,116.906 309.5,115.5 Z"/></g>
<g><path style="opacity:1" fill="#8a8a8a" d="M 313.5,117.5 C 315.027,117.427 316.027,118.094 316.5,119.5C 314.973,119.573 313.973,118.906 313.5,117.5 Z"/></g>
<g><path style="opacity:1" fill="#464646" d="M 183.5,121.5 C 183.027,122.906 182.027,123.573 180.5,123.5C 180.973,122.094 181.973,121.427 183.5,121.5 Z"/></g>
<g><path style="opacity:1" fill="#777777" d="M 179.5,123.5 C 179.027,124.906 178.027,125.573 176.5,125.5C 176.973,124.094 177.973,123.427 179.5,123.5 Z"/></g>
<g><path style="opacity:1" fill="#e8e8e8" d="M 273.5,124.5 C 275.279,126.344 277.612,127.01 280.5,126.5C 281.5,126.5 282.5,126.5 283.5,126.5C 285.214,127.738 287.214,128.405 289.5,128.5C 297.478,130.743 305.145,133.743 312.5,137.5C 312.973,138.906 313.973,139.573 315.5,139.5C 316.609,139.557 317.609,139.89 318.5,140.5C 319.035,142.446 320.368,143.446 322.5,143.5C 335.292,150.285 345.959,159.618 354.5,171.5C 354.738,173.404 355.738,174.738 357.5,175.5C 359.745,178.32 361.745,181.32 363.5,184.5C 363.427,186.027 364.094,187.027 365.5,187.5C 368.258,190.678 370.258,194.345 371.5,198.5C 371.025,201.313 372.025,203.313 374.5,204.5C 374.41,207.152 375.076,209.485 376.5,211.5C 377.537,212.93 378.204,214.597 378.5,216.5C 378.565,219.428 379.232,222.095 380.5,224.5C 380.41,227.152 381.076,229.485 382.5,231.5C 382.549,235.078 383.215,238.411 384.5,241.5C 384.5,241.833 384.5,242.167 384.5,242.5C 384.5,278.167 384.5,313.833 384.5,349.5C 296.167,349.5 207.833,349.5 119.5,349.5C 119.5,313.833 119.5,278.167 119.5,242.5C 119.5,242.167 119.5,241.833 119.5,241.5C 120.785,238.411 121.451,235.078 121.5,231.5C 121.259,229.102 121.926,227.102 123.5,225.5C 124.657,222.727 125.324,219.727 125.5,216.5C 125.796,214.597 126.463,212.93 127.5,211.5C 128.924,209.485 129.59,207.152 129.5,204.5C 132.407,202.685 133.741,200.019 133.5,196.5C 133.75,194.326 134.75,192.659 136.5,191.5C 137.376,191.631 138.043,191.298 138.5,190.5C 140.172,187.137 141.839,183.803 143.5,180.5C 143.75,178.326 144.75,176.659 146.5,175.5C 148.587,174.415 149.92,172.749 150.5,170.5C 151.833,169.833 152.833,168.833 153.5,167.5C 155.094,164.236 157.427,161.569 160.5,159.5C 163.089,158.581 165.089,156.914 166.5,154.5C 166.5,153.833 166.833,153.5 167.5,153.5C 169.749,152.92 171.415,151.587 172.5,149.5C 178.495,144.497 185.162,140.497 192.5,137.5C 194.027,137.573 195.027,136.906 195.5,135.5C 198.01,135.946 200.01,135.28 201.5,133.5C 208.45,129.502 216.116,127.169 224.5,126.5C 226.527,126.662 228.527,126.495 230.5,126C 231.056,125.617 231.389,125.117 231.5,124.5C 245.5,123.167 259.5,123.167 273.5,124.5 Z"/></g>
<g><path style="opacity:1" fill="#a8a8a8" d="M 231.5,124.5 C 231.389,125.117 231.056,125.617 230.5,126C 228.527,126.495 226.527,126.662 224.5,126.5C 226.515,125.076 228.848,124.41 231.5,124.5 Z"/></g>
<g><path style="opacity:1" fill="#ababab" d="M 273.5,124.5 C 276.152,124.41 278.485,125.076 280.5,126.5C 277.612,127.01 275.279,126.344 273.5,124.5 Z"/></g>
<g><path style="opacity:1" fill="#7b7b7b" d="M 326.5,124.5 C 328.027,124.427 329.027,125.094 329.5,126.5C 327.973,126.573 326.973,125.906 326.5,124.5 Z"/></g>
<g><path style="opacity:1" fill="#353535" d="M 283.5,126.5 C 286.082,126.025 288.082,126.692 289.5,128.5C 287.214,128.405 285.214,127.738 283.5,126.5 Z"/></g>
<g><path style="opacity:1" fill="#4d4d4d" d="M 171.5,128.5 C 171.027,129.906 170.027,130.573 168.5,130.5C 168.973,129.094 169.973,128.427 171.5,128.5 Z"/></g>
<g><path style="opacity:1" fill="#7d7d7d" d="M 339.5,132.5 C 341.749,133.08 343.415,134.413 344.5,136.5C 342.251,135.92 340.585,134.587 339.5,132.5 Z"/></g>
<g><path style="opacity:1" fill="#5f5f5f" d="M 166.5,131.5 C 165.738,133.262 164.404,134.262 162.5,134.5C 163.262,132.738 164.596,131.738 166.5,131.5 Z"/></g>
<g><path style="opacity:1" fill="#9b9b9b" d="M 201.5,133.5 C 200.01,135.28 198.01,135.946 195.5,135.5C 197.214,134.262 199.214,133.595 201.5,133.5 Z"/></g>
<g><path style="opacity:1" fill="#969696" d="M 195.5,135.5 C 195.027,136.906 194.027,137.573 192.5,137.5C 192.973,136.094 193.973,135.427 195.5,135.5 Z"/></g>
<g><path style="opacity:1" fill="#7a7a7a" d="M 312.5,137.5 C 314.027,137.427 315.027,138.094 315.5,139.5C 313.973,139.573 312.973,138.906 312.5,137.5 Z"/></g>
<g><path style="opacity:1" fill="#999999" d="M 318.5,140.5 C 320.23,141.026 321.564,142.026 322.5,143.5C 320.368,143.446 319.035,142.446 318.5,140.5 Z"/></g>
<g><path style="opacity:1" fill="#464646" d="M 145.5,149.5 C 144.118,151.549 142.452,153.215 140.5,154.5C 141.189,151.811 142.856,150.144 145.5,149.5 Z"/></g>
<g><path style="opacity:1" fill="#959595" d="M 172.5,149.5 C 171.415,151.587 169.749,152.92 167.5,153.5C 168.585,151.413 170.251,150.08 172.5,149.5 Z"/></g>
<g><path style="opacity:1" fill="#9f9f9f" d="M 166.5,154.5 C 165.089,156.914 163.089,158.581 160.5,159.5C 161.911,157.086 163.911,155.419 166.5,154.5 Z"/></g>
<g><path style="opacity:1" fill="#656565" d="M 373.5,166.5 C 375.262,167.262 376.262,168.596 376.5,170.5C 374.738,169.738 373.738,168.404 373.5,166.5 Z"/></g>
<g><path style="opacity:1" fill="#464646" d="M 131.5,165.5 C 131.446,167.632 130.446,168.965 128.5,169.5C 128.738,167.596 129.738,166.262 131.5,165.5 Z"/></g>
<g><path style="opacity:1" fill="#949494" d="M 153.5,167.5 C 152.833,168.833 151.833,169.833 150.5,170.5C 150.5,168.5 151.5,167.5 153.5,167.5 Z"/></g>
<g><path style="opacity:1" fill="#989898" d="M 354.5,171.5 C 356.262,172.262 357.262,173.596 357.5,175.5C 355.738,174.738 354.738,173.404 354.5,171.5 Z"/></g>
<g><path style="opacity:1" fill="#959595" d="M 150.5,170.5 C 149.92,172.749 148.587,174.415 146.5,175.5C 147.08,173.251 148.413,171.585 150.5,170.5 Z"/></g>
<g><path style="opacity:1" fill="#5f5f5f" d="M 125.5,174.5 C 125.573,176.027 124.906,177.027 123.5,177.5C 123.427,175.973 124.094,174.973 125.5,174.5 Z"/></g>
<g><path style="opacity:1" fill="#6a6a6a" d="M 122.5,179.5 C 122.34,181.153 121.674,182.486 120.5,183.5C 120.229,181.62 120.896,180.287 122.5,179.5 Z"/></g>
<g><path style="opacity:1" fill="#4d4d4d" d="M 206.5,182.5 C 201.473,182.503 196.473,182.836 191.5,183.5C 194.186,182.009 197.186,181.343 200.5,181.5C 202.696,181.505 204.696,181.838 206.5,182.5 Z"/></g>
<g><path style="opacity:1" fill="#575757" d="M 295.5,182.5 C 299.311,181.355 303.311,181.188 307.5,182C 308.056,182.383 308.389,182.883 308.5,183.5C 304.232,182.627 299.898,182.294 295.5,182.5 Z"/></g>
<g><path style="opacity:1" fill="#6f6f6f" d="M 381.5,179.5 C 382.906,179.973 383.573,180.973 383.5,182.5C 382.094,182.027 381.427,181.027 381.5,179.5 Z"/></g>
<g><path style="opacity:1" fill="#080808" d="M 206.5,182.5 C 207.795,183.488 209.128,184.488 210.5,185.5C 210.919,189.773 210.252,193.773 208.5,197.5C 205.418,199.181 202.085,199.848 198.5,199.5C 196.596,199.738 195.262,200.738 194.5,202.5C 192.068,203.841 190.734,206.008 190.5,209C 190.525,210.876 191.191,212.376 192.5,213.5C 193.467,216.458 195.467,218.125 198.5,218.5C 200.902,220.891 203.236,220.891 205.5,218.5C 206.209,217.596 207.209,217.263 208.5,217.5C 210.262,216.738 211.262,215.404 211.5,213.5C 212.161,210.213 212.661,206.88 213,203.5C 216.327,200.846 220.161,199.846 224.5,200.5C 224.973,201.906 225.973,202.573 227.5,202.5C 230.012,204.237 231.012,206.737 230.5,210C 230.577,213.358 229.911,216.525 228.5,219.5C 226.738,220.262 225.738,221.596 225.5,223.5C 223.885,226.45 221.885,229.116 219.5,231.5C 217.566,232.11 215.899,233.11 214.5,234.5C 212.973,234.427 211.973,235.094 211.5,236.5C 209.585,236.216 207.919,236.549 206.5,237.5C 202.119,237.628 197.785,237.295 193.5,236.5C 184.632,233.302 178.299,227.302 174.5,218.5C 173.844,216.547 173.511,214.547 173.5,212.5C 173.646,208.481 173.979,204.481 174.5,200.5C 174.328,199.508 174.662,198.842 175.5,198.5C 176.674,197.486 177.34,196.153 177.5,194.5C 179.842,189.835 183.509,186.835 188.5,185.5C 190.027,185.573 191.027,184.906 191.5,183.5C 196.473,182.836 201.473,182.503 206.5,182.5 Z"/></g>
<g><path style="opacity:1" fill="#070707" d="M 295.5,182.5 C 299.898,182.294 304.232,182.627 308.5,183.5C 313.819,194.411 310.152,199.911 297.5,200C 291.782,204.938 291.115,210.438 295.5,216.5C 296.287,218.104 297.62,218.771 299.5,218.5C 301.764,220.891 304.098,220.891 306.5,218.5C 308.017,218.489 309.184,217.823 310,216.5C 311.969,212.768 312.969,208.768 313,204.5C 314.039,203.29 315.206,202.29 316.5,201.5C 318.764,200.781 321.097,200.448 323.5,200.5C 326.06,201.22 327.893,202.887 329,205.5C 329.754,210.963 329.254,216.296 327.5,221.5C 325.05,223.629 323.383,226.296 322.5,229.5C 310.136,239.801 297.47,240.134 284.5,230.5C 283.5,228.833 282.167,227.5 280.5,226.5C 279.201,224.588 278.201,222.588 277.5,220.5C 277.573,218.973 276.906,217.973 275.5,217.5C 274.22,211.847 274.22,206.18 275.5,200.5C 276.906,200.027 277.573,199.027 277.5,197.5C 279.497,192.988 282.497,189.155 286.5,186C 288.025,184.991 289.692,184.491 291.5,184.5C 293.153,184.34 294.486,183.674 295.5,182.5 Z"/></g>
<g><path style="opacity:1" fill="#545454" d="M 295.5,182.5 C 294.486,183.674 293.153,184.34 291.5,184.5C 292.287,182.896 293.62,182.229 295.5,182.5 Z"/></g>
<g><path style="opacity:1" fill="#4e4e4e" d="M 191.5,183.5 C 191.027,184.906 190.027,185.573 188.5,185.5C 188.973,184.094 189.973,183.427 191.5,183.5 Z"/></g>
<g><path style="opacity:1" fill="#8f8f8f" d="M 363.5,184.5 C 364.906,184.973 365.573,185.973 365.5,187.5C 364.094,187.027 363.427,186.027 363.5,184.5 Z"/></g>
<g><path style="opacity:1" fill="#7c7c7c" d="M 210.5,185.5 C 211.641,188.64 211.808,191.973 211,195.5C 210.292,196.381 209.458,197.047 208.5,197.5C 210.252,193.773 210.919,189.773 210.5,185.5 Z"/></g>
<g><path style="opacity:1" fill="#b0b0b0" d="M 143.5,180.5 C 141.839,183.803 140.172,187.137 138.5,190.5C 138.043,191.298 137.376,191.631 136.5,191.5C 137.731,188.039 139.231,184.706 141,181.5C 141.671,180.748 142.504,180.414 143.5,180.5 Z"/></g>
<g><path style="opacity:1" fill="#686868" d="M 177.5,194.5 C 177.34,196.153 176.674,197.486 175.5,198.5C 175.229,196.62 175.896,195.287 177.5,194.5 Z"/></g>
<g><path style="opacity:1" fill="#a1a1a1" d="M 133.5,196.5 C 133.741,200.019 132.407,202.685 129.5,204.5C 130.65,201.702 131.983,199.035 133.5,196.5 Z"/></g>
<g><path style="opacity:1" fill="#757575" d="M 277.5,197.5 C 277.573,199.027 276.906,200.027 275.5,200.5C 275.427,198.973 276.094,197.973 277.5,197.5 Z"/></g>
<g><path style="opacity:1" fill="#757575" d="M 323.5,200.5 C 321.097,200.448 318.764,200.781 316.5,201.5C 317.312,200.007 318.645,199.34 320.5,199.5C 321.726,199.52 322.726,199.853 323.5,200.5 Z"/></g>
<g><path style="opacity:1" fill="#777777" d="M 112.5,198.5 C 112.34,200.153 111.674,201.486 110.5,202.5C 110.229,200.62 110.896,199.287 112.5,198.5 Z"/></g>
<g><path style="opacity:1" fill="#979797" d="M 198.5,199.5 C 197.738,201.262 196.404,202.262 194.5,202.5C 195.262,200.738 196.596,199.738 198.5,199.5 Z"/></g>
<g><path style="opacity:1" fill="#767676" d="M 391.5,198.5 C 393.104,199.287 393.771,200.62 393.5,202.5C 392.326,201.486 391.66,200.153 391.5,198.5 Z"/></g>
<g><path style="opacity:1" fill="#7d7d7d" d="M 224.5,200.5 C 226.027,200.427 227.027,201.094 227.5,202.5C 225.973,202.573 224.973,201.906 224.5,200.5 Z"/></g>
<g><path style="opacity:1" fill="#9b9b9b" d="M 371.5,198.5 C 372.492,200.456 373.492,202.456 374.5,204.5C 372.025,203.313 371.025,201.313 371.5,198.5 Z"/></g>
<g><path style="opacity:1" fill="#929292" d="M 129.5,204.5 C 129.59,207.152 128.924,209.485 127.5,211.5C 127.41,208.848 128.076,206.515 129.5,204.5 Z"/></g>
<g><path style="opacity:1" fill="#8a8a8a" d="M 174.5,200.5 C 173.979,204.481 173.646,208.481 173.5,212.5C 172.842,211.207 172.508,209.707 172.5,208C 172.408,205.179 173.074,202.679 174.5,200.5 Z"/></g>
<g><path style="opacity:1" fill="#929292" d="M 374.5,204.5 C 375.924,206.515 376.59,208.848 376.5,211.5C 375.076,209.485 374.41,207.152 374.5,204.5 Z"/></g>
<g><path style="opacity:1" fill="#9d9d9d" d="M 194.5,202.5 C 192.909,205.961 192.242,209.628 192.5,213.5C 191.191,212.376 190.525,210.876 190.5,209C 190.734,206.008 192.068,203.841 194.5,202.5 Z"/></g>
<g><path style="opacity:1" fill="#5d5d5d" d="M 211.5,213.5 C 211.262,215.404 210.262,216.738 208.5,217.5C 208.738,215.596 209.738,214.262 211.5,213.5 Z"/></g>
<g><path style="opacity:1" fill="#888888" d="M 295.5,216.5 C 297.153,216.66 298.486,217.326 299.5,218.5C 297.62,218.771 296.287,218.104 295.5,216.5 Z"/></g>
<g><path style="opacity:1" fill="#949494" d="M 198.5,218.5 C 200.833,218.5 203.167,218.5 205.5,218.5C 203.236,220.891 200.902,220.891 198.5,218.5 Z"/></g>
<g><path style="opacity:1" fill="#8e8e8e" d="M 299.5,218.5 C 301.833,218.5 304.167,218.5 306.5,218.5C 304.098,220.891 301.764,220.891 299.5,218.5 Z"/></g>
<g><path style="opacity:1" fill="#787878" d="M 275.5,217.5 C 276.906,217.973 277.573,218.973 277.5,220.5C 276.094,220.027 275.427,219.027 275.5,217.5 Z"/></g>
<g><path style="opacity:1" fill="#9e9e9e" d="M 378.5,216.5 C 380.223,218.78 380.889,221.447 380.5,224.5C 379.232,222.095 378.565,219.428 378.5,216.5 Z"/></g>
<g><path style="opacity:1" fill="#858585" d="M 228.5,219.5 C 228.262,221.404 227.262,222.738 225.5,223.5C 225.738,221.596 226.738,220.262 228.5,219.5 Z"/></g>
<g><path style="opacity:1" fill="#acacac" d="M 125.5,216.5 C 125.324,219.727 124.657,222.727 123.5,225.5C 123.068,222.123 123.735,219.123 125.5,216.5 Z"/></g>
<g><path style="opacity:1" fill="#050505" d="M 90.5,300.5 C 89.0937,300.973 88.427,301.973 88.5,303.5C 84.5874,304.596 80.5874,304.762 76.5,304C 75.6667,303.167 74.8333,302.333 74,301.5C 73.3333,277.833 73.3333,254.167 74,230.5C 79.6866,224.96 85.02,225.294 90,231.5C 90.5,254.498 90.6666,277.498 90.5,300.5 Z"/></g>
<g><path style="opacity:1" fill="#929292" d="M 280.5,226.5 C 282.167,227.5 283.5,228.833 284.5,230.5C 282.167,230.167 280.833,228.833 280.5,226.5 Z"/></g>
<g><path style="opacity:1" fill="#050505" d="M 416.5,304.5 C 416.262,302.596 415.262,301.262 413.5,300.5C 413.333,277.164 413.5,253.831 414,230.5C 417.396,226.797 421.563,225.631 426.5,227C 427.155,228.487 428.155,229.653 429.5,230.5C 430.833,254.167 430.833,277.833 429.5,301.5C 425.695,304.261 421.361,305.261 416.5,304.5 Z"/></g>
<g><path style="opacity:1" fill="#aaaaaa" d="M 327.5,221.5 C 327.762,222.978 327.429,224.311 326.5,225.5C 325.333,227.079 324,228.412 322.5,229.5C 323.383,226.296 325.05,223.629 327.5,221.5 Z"/></g>
<g><path style="opacity:1" fill="#848484" d="M 380.5,224.5 C 381.924,226.515 382.59,228.848 382.5,231.5C 381.076,229.485 380.41,227.152 380.5,224.5 Z"/></g>
<g><path style="opacity:1" fill="#909090" d="M 219.5,231.5 C 218.599,233.727 216.933,234.727 214.5,234.5C 215.899,233.11 217.566,232.11 219.5,231.5 Z"/></g>
<g><path style="opacity:1" fill="#8e8e8e" d="M 214.5,234.5 C 214.027,235.906 213.027,236.573 211.5,236.5C 211.973,235.094 212.973,234.427 214.5,234.5 Z"/></g>
<g><path style="opacity:1" fill="#999999" d="M 193.5,236.5 C 197.785,237.295 202.119,237.628 206.5,237.5C 204.527,238.163 202.361,238.496 200,238.5C 197.39,238.467 195.223,237.8 193.5,236.5 Z"/></g>
<g><path style="opacity:1" fill="#575757" d="M 121.5,231.5 C 121.451,235.078 120.785,238.411 119.5,241.5C 119.322,237.878 119.989,234.544 121.5,231.5 Z"/></g>
<g><path style="opacity:1" fill="#575757" d="M 382.5,231.5 C 384.011,234.544 384.678,237.878 384.5,241.5C 383.215,238.411 382.549,235.078 382.5,231.5 Z"/></g>
<g><path style="opacity:1" fill="#909090" d="M 90.5,300.5 C 90.573,302.027 89.9063,303.027 88.5,303.5C 88.427,301.973 89.0937,300.973 90.5,300.5 Z"/></g>
<g><path style="opacity:1" fill="#878787" d="M 413.5,300.5 C 415.262,301.262 416.262,302.596 416.5,304.5C 414.738,303.738 413.738,302.404 413.5,300.5 Z"/></g>
<g><path style="opacity:1" fill="#6a6a6a" d="M 103.5,230.5 C 102.548,274.821 102.215,319.155 102.5,363.5C 101.335,322.002 101.169,280.335 102,238.5C 102.183,235.635 102.683,232.969 103.5,230.5 Z"/></g>
<g><path style="opacity:1" fill="#6a6a6a" d="M 400.5,230.5 C 401.317,232.969 401.817,235.635 402,238.5C 402.831,280.335 402.665,322.002 401.5,363.5C 401.785,319.155 401.452,274.821 400.5,230.5 Z"/></g>
<g><path style="opacity:1" fill="#3f3f3f" d="M 119.5,242.5 C 119.5,278.167 119.5,313.833 119.5,349.5C 207.833,349.5 296.167,349.5 384.5,349.5C 384.5,313.833 384.5,278.167 384.5,242.5C 385.498,278.329 385.832,314.329 385.5,350.5C 296.5,350.5 207.5,350.5 118.5,350.5C 118.168,314.329 118.502,278.329 119.5,242.5 Z"/></g>
<g><path style="opacity:1" fill="#9c9c9c" d="M 281.5,312.5 C 279.22,314.223 276.553,314.889 273.5,314.5C 275.838,312.96 278.505,312.294 281.5,312.5 Z"/></g>
<g><path style="opacity:1" fill="#a7a7a7" d="M 287.5,310.5 C 285.898,312.074 283.898,312.741 281.5,312.5C 283.102,310.926 285.102,310.259 287.5,310.5 Z"/></g>
<g><path style="opacity:1" fill="#7e7e7e" d="M 215.5,309.5 C 218.486,309.903 221.152,310.903 223.5,312.5C 220.364,312.397 217.698,311.397 215.5,309.5 Z"/></g>
<g><path style="opacity:1" fill="#aaaaaa" d="M 293.5,307.5 C 292.077,309.545 290.077,310.545 287.5,310.5C 289.03,308.654 291.03,307.654 293.5,307.5 Z"/></g>
<g><path style="opacity:1" fill="#b7b7b7" d="M 309.5,297.5 C 307.53,301.151 304.53,303.151 300.5,303.5C 303.474,301.538 306.474,299.538 309.5,297.5 Z"/></g>
<g><path style="opacity:1" fill="#4b4b4b" d="M 203.5,302.5 C 205.404,302.738 206.738,303.738 207.5,305.5C 205.596,305.262 204.262,304.262 203.5,302.5 Z"/></g>
<g><path style="opacity:1" fill="#acacac" d="M 314.5,292.5 C 313.833,295.167 312.167,296.833 309.5,297.5C 310.833,295.5 312.5,293.833 314.5,292.5 Z"/></g>
<g><path style="opacity:1" fill="#2c2c2c" d="M 316.5,277.5 C 313.221,276.508 309.888,276.341 306.5,277C 305.211,278.802 303.544,279.969 301.5,280.5C 304.897,275.693 309.564,274.193 315.5,276C 316.056,276.383 316.389,276.883 316.5,277.5 Z"/></g>
<g><path style="opacity:1" fill="#070707" d="M 200.5,277.5 C 201.167,278.833 202.167,279.833 203.5,280.5C 204.833,281.5 206.167,282.5 207.5,283.5C 208.585,285.587 210.251,286.92 212.5,287.5C 212.5,288.167 212.833,288.5 213.5,288.5C 215.456,289.492 217.456,290.492 219.5,291.5C 222.518,293.4 225.851,294.733 229.5,295.5C 233.681,296.66 238.015,297.66 242.5,298.5C 245.649,299.165 248.982,299.498 252.5,299.5C 257.437,299.7 262.104,299.033 266.5,297.5C 273.921,296.112 280.921,293.779 287.5,290.5C 289.027,290.573 290.027,289.906 290.5,288.5C 294.167,285.833 297.833,283.167 301.5,280.5C 303.544,279.969 305.211,278.802 306.5,277C 309.888,276.341 313.221,276.508 316.5,277.5C 319.187,280.246 320.02,283.58 319,287.5C 317.293,289.037 315.793,290.704 314.5,292.5C 312.5,293.833 310.833,295.5 309.5,297.5C 306.474,299.538 303.474,301.538 300.5,303.5C 297.968,304.596 295.635,305.929 293.5,307.5C 291.03,307.654 289.03,308.654 287.5,310.5C 285.102,310.259 283.102,310.926 281.5,312.5C 278.505,312.294 275.838,312.96 273.5,314.5C 256.687,317.587 240.02,316.921 223.5,312.5C 221.152,310.903 218.486,309.903 215.5,309.5C 212.631,308.732 209.964,307.399 207.5,305.5C 206.738,303.738 205.404,302.738 203.5,302.5C 197.032,299.501 191.532,295.168 187,289.5C 183.206,281.493 185.539,276.826 194,275.5C 196.341,275.83 198.508,276.496 200.5,277.5 Z"/></g>
<g><path style="opacity:1" fill="#5e5e5e" d="M 266.5,297.5 C 262.104,299.033 257.437,299.7 252.5,299.5C 248.982,299.498 245.649,299.165 242.5,298.5C 250.529,298.656 258.529,298.323 266.5,297.5 Z"/></g>
<g><path style="opacity:1" fill="#b3b3b3" d="M 219.5,291.5 C 223.567,291.206 226.9,292.54 229.5,295.5C 225.851,294.733 222.518,293.4 219.5,291.5 Z"/></g>
<g><path style="opacity:1" fill="#5c5c5c" d="M 290.5,288.5 C 290.027,289.906 289.027,290.573 287.5,290.5C 287.973,289.094 288.973,288.427 290.5,288.5 Z"/></g>
<g><path style="opacity:1" fill="#a0a0a0" d="M 213.5,288.5 C 216.313,288.025 218.313,289.025 219.5,291.5C 217.456,290.492 215.456,289.492 213.5,288.5 Z"/></g>
<g><path style="opacity:1" fill="#a6a6a6" d="M 207.5,283.5 C 209.749,284.08 211.415,285.413 212.5,287.5C 210.251,286.92 208.585,285.587 207.5,283.5 Z"/></g>
<g><path style="opacity:1" fill="#8a8a8a" d="M 200.5,277.5 C 202.5,277.5 203.5,278.5 203.5,280.5C 202.167,279.833 201.167,278.833 200.5,277.5 Z"/></g>
<g><path style="opacity:1" fill="#b1b1b1" d="M 106.5,366.5 C 203.5,366.5 300.5,366.5 397.5,366.5C 349.338,367.833 300.838,368.5 252,368.5C 203.162,368.5 154.662,367.833 106.5,366.5 Z"/></g>
<g><path style="opacity:1" fill="#0f0f0f" d="M 69.5,400.5 C 69.0269,399.094 68.0269,398.427 66.5,398.5C 63.4374,392.981 64.4374,388.148 69.5,384C 191.167,383.333 312.833,383.333 434.5,384C 441.49,390.206 441.157,395.873 433.5,401C 311.999,401.833 190.666,401.666 69.5,400.5 Z"/></g>
<g><path style="opacity:1" fill="#232323" d="M 71.5,386.5 C 73.4228,390.029 74.0894,394.029 73.5,398.5C 70.1133,398.284 68.1133,396.45 67.5,393C 68.25,390.429 69.5833,388.262 71.5,386.5 Z"/></g>
<g><path style="opacity:1" fill="#585858" d="M 66.5,398.5 C 68.0269,398.427 69.0269,399.094 69.5,400.5C 67.9731,400.573 66.9731,399.906 66.5,398.5 Z"/></g>
</svg>
